<svg width="1440" height="396" viewBox="0 0 1440 396" fill="none" xmlns="http://www.w3.org/2000/svg">
<g clip-path="url(#clip0_460_517)">
<path d="M1459 152.587L1424.25 143.569C1389.39 134.463 1319.89 116.426 1250.48 114.5C1181.08 112.574 1111.78 126.933 1042.37 129.209C972.971 131.573 903.465 121.942 833.859 109.684C764.253 97.4267 694.747 82.5422 625.141 91.1227C555.535 99.7907 486.029 131.836 416.625 139.716C347.222 147.596 277.919 131.311 208.516 126.495C139.112 121.68 69.6066 128.334 34.7526 131.748L1.53087e-06 135.075L1.19408e-05 16L34.7526 16C69.6066 16 139.112 16 208.516 16C277.919 16 347.222 16 416.626 16C486.029 16 555.535 16 625.141 16C694.747 16 764.253 16 833.859 16.0001C903.465 16.0001 972.971 16.0001 1042.37 16.0001C1111.78 16.0001 1181.08 16.0001 1250.48 16.0001C1319.89 16.0001 1389.39 16.0001 1424.25 16.0001L1459 16.0001L1459 152.587Z" fill="#56BEEC"/>
</g>
<rect width="1440" height="68" fill="#56BEEC"/>
<defs>
<clipPath id="clip0_460_517">
<rect width="1459" height="394" fill="white" transform="translate(1459 396) rotate(-180)"/>
</clipPath>
</defs>
</svg>
